<?xml version="1.0" encoding="UTF-8"?>
<svg version="1.1" xmlns="http://www.w3.org/2000/svg" width="512" height="512">
<path d="M0 0 C1.02605337 -0.00694553 2.05210674 -0.01389106 3.10925263 -0.02104706 C6.51619262 -0.03921092 9.9224279 -0.02908232 13.32939148 -0.01878357 C15.78430702 -0.0258471 18.23921821 -0.03459394 20.69412231 -0.04489136 C26.64975668 -0.06501212 32.60511846 -0.06642779 38.56075893 -0.05826581 C43.40123419 -0.05194906 48.24165382 -0.05311811 53.08212852 -0.05953789 C54.1180549 -0.06089037 54.1180549 -0.06089037 55.17490908 -0.06227018 C56.57810783 -0.06412147 57.98130657 -0.06598403 59.38450529 -0.06785773 C72.51649953 -0.08440393 85.64838604 -0.07574205 98.78037377 -0.05887216 C110.79052118 -0.04415727 122.80041882 -0.05883423 134.8105341 -0.08764232 C147.15745408 -0.11703699 159.50425877 -0.12800974 171.8512122 -0.11846012 C173.2475304 -0.1174376 174.64384862 -0.11644299 176.04016685 -0.11547661 C176.72710528 -0.11500022 177.41404371 -0.11452383 178.12179846 -0.114033 C182.9577319 -0.11187009 187.79355593 -0.12166561 192.6294651 -0.13624763 C199.1360476 -0.15559503 205.64223929 -0.1486905 212.14882851 -0.12404823 C214.53773769 -0.11903002 216.92668219 -0.1225561 219.3155632 -0.13519669 C222.57362654 -0.15107476 225.83014497 -0.1362245 229.08813477 -0.11352539 C230.03589147 -0.12536112 230.98364818 -0.13719685 231.96012479 -0.14939123 C236.35177754 -0.08711662 239.30628597 0.11398002 242.79776287 2.92892551 C246.18262442 6.53243429 246.51735347 8.52083857 246.44535828 13.47950745 C246.12581391 16.45241126 245.11250579 18.22464528 243.22660828 20.5146637 C240.36406136 22.25308691 238.2382238 22.76471017 234.90930367 22.76520348 C234.04812435 22.77020217 233.18694504 22.77520087 232.29966938 22.78035104 C231.35824019 22.77568783 230.41681099 22.77102462 229.44685364 22.76622009 C227.94124636 22.7706753 227.94124636 22.7706753 226.40522277 22.77522051 C223.03198773 22.78287699 219.65892596 22.77635969 216.28569031 22.77003479 C213.8712197 22.77278389 211.45675 22.7764633 209.0422821 22.78100586 C203.83780681 22.7891264 198.63336216 22.79144671 193.4288826 22.78905869 C185.89752985 22.78596186 178.36625231 22.79759706 170.83491848 22.81360848 C158.6072528 22.83957425 146.37958705 22.859591 134.15190125 22.87306213 C133.42004588 22.8738725 132.68819051 22.87468287 131.93415771 22.8755178 C121.54875961 22.8867387 111.16336686 22.89202028 100.7779635 22.89490493 C99.68109003 22.89521091 99.68109003 22.89521091 98.5620575 22.89552307 C97.8316999 22.89572301 97.1013423 22.89592294 96.34885265 22.89612894 C84.16938261 22.89986198 71.98999409 22.91894798 59.81056488 22.95061743 C52.29871755 22.96953292 44.78707924 22.97549307 37.27521466 22.96480025 C31.5190105 22.95773412 25.76299876 22.97125531 20.00683594 22.99241829 C17.6453492 22.99775081 15.28383566 22.9962255 12.92235947 22.98738289 C9.70133109 22.97629336 6.48129753 22.98965755 3.2603302 23.00914001 C1.85487857 22.99545303 1.85487857 22.99545303 0.42103398 22.98148954 C-5.26323348 23.0485031 -8.41964159 23.77228469 -12.77339172 27.5146637 C-14.37203369 30.71194763 -13.90631381 34.17842 -13.89364624 37.68962097 C-13.89492788 38.97237791 -13.89492788 38.97237791 -13.89623541 40.28104913 C-13.8978901 43.1631408 -13.89236899 46.045175 -13.88691711 48.92726135 C-13.88663521 50.98664346 -13.88679303 53.04602567 -13.88735962 55.10540771 C-13.88764748 60.71049117 -13.88175251 66.31555338 -13.87478566 71.92063189 C-13.86855031 77.7729688 -13.86794818 83.62530615 -13.86676025 89.47764587 C-13.86364748 100.56632335 -13.8554348 111.654991 -13.84541076 122.74366415 C-13.83424797 135.36499266 -13.82873876 147.98632164 -13.82371533 160.60765386 C-13.81325215 186.57666259 -13.79565374 212.54566259 -13.77339172 238.5146637 C-13.09322998 237.83006073 -12.41306824 237.14545776 -11.71229553 236.44010925 C-5.30254885 229.9898236 1.11246893 223.54482201 7.53268814 217.10495949 C10.83323403 213.79397532 14.13189318 210.481156 17.42631531 207.16407776 C20.60552508 203.96314143 23.78959191 200.76711178 26.97708893 197.57442856 C28.19247026 196.35535116 29.40608954 195.13451443 30.61791229 193.91189957 C32.31520662 192.20009304 34.01865159 190.49464236 35.72367859 188.7905426 C36.2235881 188.28344254 36.72349762 187.77634247 37.23855591 187.25387573 C40.3107055 184.19976322 42.90333047 181.75949712 47.3081665 181.29530334 C54.16445675 181.80835482 57.44637904 184.59958649 62.12895203 189.4209137 C63.21187782 190.48783447 63.21187782 190.48783447 64.31668091 191.5763092 C66.63822951 193.87153201 68.93179449 196.19274321 71.22660828 198.5146637 C72.77416143 200.04932498 74.323804 201.58188216 75.87553406 203.11231995 C80.53862813 207.72149168 85.16579938 212.3656401 89.78910828 217.0146637 C91.39759295 218.62818352 93.00631595 220.24146579 94.61528015 221.85450745 C98.48845823 225.73850837 102.35874664 229.62536875 106.22660828 233.5146637 C109.50817788 232.07904508 111.66943178 230.31552463 114.18684387 227.78147888 C114.96355438 227.00462738 115.74026489 226.22777588 116.54051208 225.42738342 C117.38325684 224.57430603 118.22600159 223.72122864 119.09428406 222.84230042 C120.46757981 221.46452187 121.84087583 220.08674358 123.21418166 218.70897508 C124.68683309 217.22958785 126.15697146 215.74774412 127.62642288 214.26517868 C130.68826204 211.17629051 133.75771915 208.09504919 136.8283844 205.01493835 C143.34205787 198.47907363 149.84724307 191.93478989 156.35160828 185.3896637 C163.38022783 178.31703178 170.41026838 171.24584879 177.45008075 164.1843549 C180.50482237 161.11962529 183.55461618 158.05007917 186.60076547 154.97681022 C188.03770163 153.52857659 189.47688459 152.08262263 190.91712952 150.63768005 C192.67649462 148.87254935 194.4322299 147.10379087 196.1837616 145.33088684 C196.95483246 144.55967499 197.72590332 143.78846313 198.52033997 142.99388123 C199.19174074 142.31803923 199.86314152 141.64219723 200.55488777 140.94587517 C202.22660828 139.5146637 202.22660828 139.5146637 204.22660828 139.5146637 C204.22660828 138.8546637 204.22660828 138.1946637 204.22660828 137.5146637 C205.87113953 135.8584137 205.87113953 135.8584137 208.03910828 134.0146637 C208.74680359 133.4062262 209.4544989 132.7977887 210.18363953 132.1709137 C213.79835563 129.2404364 216.26116599 127.86057235 221.01973057 128.0288229 C230.31879066 130.07599695 239.10954935 142.13141572 245.64091492 148.70191956 C246.97184475 150.03341441 248.30321686 151.36446728 249.63499451 152.69511414 C253.22768073 156.2872294 256.81419142 159.88545265 260.39958119 163.48484874 C264.15557739 167.25339531 267.91728422 171.01623301 271.67837524 174.7796936 C278.790083 181.8976035 285.89667954 189.02059369 293.00142998 196.14544731 C301.09425026 204.26066606 309.19278859 212.37016828 317.29179966 220.47920787 C333.9430823 237.15136383 350.58721225 253.83064506 367.22660828 270.5146637 C367.23025391 269.89936295 367.23389954 269.28406219 367.23765564 268.65011597 C367.27948805 262.2420331 367.34883904 255.83466597 367.43412781 249.42701721 C367.46234162 247.03613953 367.48355406 244.64516851 367.49760437 242.25416565 C367.51902738 238.81577245 367.56567694 235.3785021 367.61723328 231.94044495 C367.61846191 230.87256241 367.61969055 229.80467987 367.62095642 228.70443726 C367.76759257 221.26310199 367.76759257 221.26310199 370.14750671 217.38258362 C373.17583592 214.66185244 375.04669083 213.66856597 379.10160828 213.1396637 C383.07148341 213.61604871 385.12197363 215.04506796 388.22660828 217.5146637 C390.78596898 221.35370476 390.51090243 224.48213093 390.49403381 228.93240356 C390.49856493 229.80179139 390.50309604 230.67117921 390.50776446 231.56691211 C390.52046463 234.49168808 390.51878445 237.41627916 390.51713562 240.34107971 C390.52311758 242.43364706 390.52992235 244.5262122 390.53749084 246.61877441 C390.55519719 252.31331322 390.55984832 258.00779196 390.56112242 263.70235562 C390.56301971 268.45600297 390.57037574 273.20963628 390.57746661 277.96327823 C390.59376766 289.18296927 390.5986342 300.4026282 390.59721375 311.62232971 C390.59601354 323.19034964 390.61708727 334.75818261 390.64870107 346.32615525 C390.67487591 356.2583582 390.68558045 366.19050018 390.68430293 376.12273735 C390.68379342 382.05426879 390.6894698 387.98563436 390.71065903 393.91713142 C390.7300602 399.50104435 390.73015277 405.0846336 390.71562576 410.66855812 C390.71353854 412.71392541 390.71823332 414.75931305 390.73034668 416.80464554 C390.80360235 430.03505891 390.63661341 440.65912942 381.08598328 450.76075745 C374.62808253 456.8523487 368.66386291 459.7607632 359.59727097 459.7719326 C358.63153987 459.77719171 358.63153987 459.77719171 357.64629906 459.78255707 C355.4921348 459.79185 353.33824213 459.78695331 351.18406677 459.78208923 C349.62271379 459.78582657 348.06136269 459.79042842 346.50001454 459.79581988 C342.21165883 459.80805514 337.9233811 459.80778879 333.63501191 459.80543113 C329.00910378 459.80502309 324.38322069 459.81606087 319.75732422 459.82554626 C310.69489122 459.84216031 301.63248423 459.847656 292.57003728 459.84877102 C285.2032709 459.84972134 277.83651311 459.85383082 270.46974945 459.86017227 C249.58292735 459.87778607 228.6961258 459.88701097 207.80929622 459.88551132 C206.68324455 459.88543141 205.55719288 459.8853515 204.39701843 459.88526917 C203.26959155 459.8851874 202.14216466 459.88510564 200.98057333 459.8850214 C182.71003797 459.88420855 164.43958506 459.90334579 146.16907355 459.9315459 C127.40836356 459.96027407 108.64769377 459.97408622 89.88696122 459.97235835 C79.35452941 459.9716944 68.82218403 459.97718851 58.28977203 459.99871445 C49.32187365 460.01692538 40.35410086 460.0212743 31.38619199 460.0076956 C26.81177159 460.00116543 22.23759214 460.00105053 17.66319466 460.0184021 C13.4721722 460.03413575 9.28158171 460.03126631 5.09056976 460.01383384 C3.57779327 460.01076457 2.06498451 460.0143936 0.55224606 460.02555399 C-10.43626872 460.10122682 -19.90928579 459.00036169 -28.24214172 451.2177887 C-34.27317626 444.5098013 -37.01808132 437.42486421 -37.03624725 428.39115715 C-37.04035252 427.69390766 -37.04445779 426.99665817 -37.04868746 426.2782799 C-37.05999457 423.94236063 -37.05711715 421.60667844 -37.05427551 419.27073669 C-37.05944469 417.57881497 -37.06547154 415.88689569 -37.07228231 414.19497979 C-37.08840688 409.54564407 -37.09200059 404.89637013 -37.09347725 400.24700975 C-37.09718106 395.2325071 -37.11227712 390.2180364 -37.12574768 385.20355225 C-37.15290446 374.23857992 -37.16496223 363.27362224 -37.173769 352.30862188 C-37.17929555 345.46103067 -37.18777058 338.6134451 -37.19677734 331.7658577 C-37.22116146 312.80403689 -37.24176029 293.84222059 -37.24852753 274.88038445 C-37.24896666 273.66692569 -37.24940579 272.45346694 -37.24985823 271.20323671 C-37.25029479 269.9868872 -37.25073134 268.77053768 -37.25118113 267.5173291 C-37.25206806 265.05257344 -37.25296118 262.58781779 -37.25386047 260.12306213 C-37.25430333 258.9004602 -37.25474619 257.67785826 -37.25520247 256.41820778 C-37.26309764 236.60995768 -37.29800376 216.80185476 -37.34457952 196.99366151 C-37.3920205 176.65318453 -37.41693186 156.31278139 -37.41926336 135.9722482 C-37.42109611 124.55326962 -37.43258163 113.13448282 -37.46890259 101.7155571 C-37.4997235 91.99157319 -37.50993452 82.26784033 -37.49342638 72.54381685 C-37.48561982 67.5842467 -37.48743963 62.62518197 -37.51554108 57.66567421 C-37.54105968 53.120352 -37.5385905 48.57591391 -37.51435965 44.03059258 C-37.51045247 42.39126065 -37.51657172 40.75186567 -37.53404838 39.11262225 C-37.64515694 27.98129506 -36.26190246 18.74610718 -28.60243464 10.04984272 C-20.75214652 2.12700528 -10.84891612 -0.09545494 0 0 Z M214.34166527 160.03898525 C213.11824537 161.21850503 213.11824537 161.21850503 211.87010992 162.42185348 C210.96934465 163.30047753 210.06857938 164.17910157 209.14051819 165.08435059 C208.17807901 166.01658607 207.21526421 166.9484339 206.2521044 167.87992483 C203.5952144 170.45238079 200.94494312 173.03156459 198.29596043 175.61215937 C196.60169524 177.2616483 194.9055999 178.90923192 193.20885658 180.55617142 C171.00813298 202.10562716 148.94586192 223.79653151 126.92406273 245.52864742 C124.1255195 248.28971986 121.3266122 251.05042267 118.52738953 253.81080627 C117.83170729 254.49686479 117.13602505 255.1829233 116.41926153 255.88977147 C105.19091385 266.95845585 93.8894793 277.9494227 82.55767719 288.91205912 C70.90486406 300.18838872 59.33253972 311.54281381 47.82994616 322.97235686 C41.37685337 329.38015843 34.89311127 335.74829337 28.31612778 342.02908134 C-3.82978045 369.91389393 -3.82978045 369.91389393 -18.35480309 407.65927219 C-18.17553644 417.08011046 -17.45398745 427.65509082 -11.77339172 435.5146637 C-8.24883176 437.86437034 -6.81600863 437.76745352 -2.64258099 437.77472591 C-0.70588701 437.7853243 -0.70588701 437.7853243 1.26993209 437.7961368 C2.71116434 437.79388522 4.1523963 437.79143869 5.59362793 437.78881836 C7.11811976 437.79326834 8.64260927 437.79858159 10.16709536 437.80468708 C14.36733367 437.8189064 18.56749812 437.82052963 22.76775706 437.82009017 C27.2934394 437.82173493 31.81909101 437.83479501 36.34475708 437.84628296 C46.24549253 437.86915852 56.14620659 437.87705628 66.04696488 437.8821094 C72.22629698 437.88536338 78.40562283 437.89188403 84.5849514 437.89911079 C101.68601818 437.91867987 118.78707915 437.93508234 135.88815784 437.93798733 C137.53050999 437.93826868 137.53050999 437.93826868 139.20604096 437.93855572 C141.42577819 437.93892198 143.64551542 437.93928568 145.86525265 437.93964683 C146.96716846 437.93982964 148.06908428 437.94001245 149.20439148 437.94020081 C150.30764858 437.94038135 151.41090568 437.9405619 152.54759481 437.94074792 C170.4298169 437.94429059 188.31191864 437.97131742 206.19409899 438.00869869 C224.54337076 438.04675016 242.89258278 438.06614457 261.2418949 438.06644684 C271.5484675 438.06703212 281.85489654 438.07556921 292.16143227 438.1044445 C300.93666598 438.12891613 309.71170378 438.13626987 318.48696236 438.12119698 C322.96573422 438.11401079 327.4441189 438.11495868 331.92284775 438.13760757 C336.02196014 438.15813849 340.12038626 438.155653 344.21949073 438.13473273 C345.70335234 438.13122647 347.18726289 438.13619584 348.6710603 438.15043717 C357.38865704 438.54898919 357.38865704 438.54898919 365.08585644 435.16374302 C376.22939724 421.37413743 375.99117606 393.15193803 377.53910828 376.0771637 C377.60249988 375.40013161 377.66589148 374.72309953 377.73120403 374.02555132 C380.9708826 338.44155076 374.61128592 309.42134269 351.58993757 281.48636687 C333.95051345 260.54014343 314.28040143 241.44002265 294.35160828 222.7021637 C293.46946797 221.87095961 292.58732766 221.03975553 291.67845583 220.18336344 C272.82027005 202.42938263 253.65881872 185.02729828 234.03959656 168.11695862 C233.33905391 167.51176081 232.63851127 166.906563 231.91674006 166.28302586 C229.9785172 164.61291824 228.03387276 162.9507398 226.08576965 161.29217529 C225.51573206 160.80159673 224.94569446 160.31101816 224.358383 159.80557358 C219.67236144 155.85061034 218.68242901 155.83000603 214.34166527 160.03898525 Z M41.30815125 213.85719299 C40.40089452 214.56209838 40.40089452 214.56209838 39.47530937 215.28124428 C31.41870062 221.61656554 23.69242759 228.31855214 16.10160828 235.2021637 C15.36799828 235.8657917 14.63438828 236.52941971 13.87854767 237.21315765 C-5.41917826 254.87078039 -17.75827857 270.72014564 -19.02135849 297.49557304 C-19.22617665 304.31131542 -19.02395533 311.08341304 -18.64839172 317.8896637 C-18.59545204 318.85300503 -18.54251236 319.81634636 -18.48796844 320.80887985 C-17.77975483 332.78228806 -16.53483406 344.65201761 -14.77339172 356.5146637 C-8.84631895 351.59915745 -3.41435509 346.291065 2.01737976 340.8374176 C2.98370218 339.87081259 3.95024589 338.90442875 4.91699219 337.93824768 C7.52204344 335.33348156 10.1240151 332.7256592 12.7254169 330.11724901 C15.45155467 327.38483032 18.18055313 324.65527171 20.90924072 321.92539978 C26.06758355 316.76395755 31.22337347 311.5999731 36.37823588 306.43505514 C42.25054365 300.5515429 48.12571491 294.67089362 54.00112045 288.79047513 C66.07945697 276.70170574 78.15421857 264.60937179 90.22660828 252.5146637 C88.67291337 249.24924773 87.01570863 247.05095511 84.45121765 244.48048401 C83.67701477 243.69997681 82.90281189 242.9194696 82.10514832 242.11531067 C81.2686676 241.28287842 80.43218689 240.45044617 79.57035828 239.5927887 C78.71228577 238.73280273 77.85421326 237.87281677 76.97013855 236.98677063 C75.1568836 235.17215543 73.34110347 233.36006053 71.522995 231.55030823 C68.73046689 228.76850749 65.9487837 225.97618224 63.16801453 223.18263245 C61.40693695 221.42287598 59.64523933 219.66373974 57.88285828 217.9052887 C57.04637756 217.06475952 56.20989685 216.22423035 55.34806824 215.35823059 C54.57386536 214.59033203 53.79966248 213.82243347 53.0019989 213.03126526 C52.31964172 212.35049927 51.63728455 211.66973328 50.93424988 210.96833801 C47.18716888 207.77853788 44.49389429 211.37329497 41.30815125 213.85719299 Z " fill="#000000" transform="translate(36.77339172363281,52.48533630371094)"/>
<path d="M0 0 C0.825 -0.01289063 1.65 -0.02578125 2.5 -0.0390625 C6.16498402 0.93444888 7.53700082 2.74839405 10 5.625 C11.52268646 8.49333334 12.65540198 11.47182232 13.7890625 14.51171875 C14.1262027 15.38511398 14.4633429 16.25850922 14.81069946 17.15837097 C15.890775 19.97448145 16.94821351 22.79821107 18 25.625 C18.34848999 26.55652893 18.69697998 27.48805786 19.05603027 28.44781494 C21.17877813 34.13658713 23.26463846 39.8381112 25.32958984 45.5480957 C26.39118053 48.4822213 27.45894893 51.41404908 28.52734375 54.34570312 C29.21390127 56.23684866 29.90011248 58.12811995 30.5859375 60.01953125 C31.05777969 61.31489555 31.05777969 61.31489555 31.53915405 62.63642883 C31.83351349 63.45225937 32.12787292 64.2680899 32.43115234 65.10864258 C32.71593445 65.87810211 33.00071655 66.64756165 33.29412842 67.44033813 C34 69.625 34 69.625 34.58837891 73.5378418 C35.63954955 76.69793602 35.63954955 76.69793602 37.90878296 77.56236267 C39.61696795 78.0662128 41.34145282 78.51646378 43.07470703 78.92584229 C46.13241716 79.65664828 48.98492963 80.63417765 51.93359375 81.72216797 C52.98168213 82.10621796 54.02977051 82.49026794 55.10961914 82.88595581 C56.75692017 83.4954155 56.75692017 83.4954155 58.4375 84.1171875 C59.59822021 84.54500519 60.75894043 84.97282288 61.95483398 85.41360474 C64.39593855 86.31465758 66.83644082 87.21734364 69.27636719 88.12158203 C72.98659493 89.4950377 76.70019758 90.85907129 80.4140625 92.22265625 C82.79708725 93.10359271 85.17990672 93.98508472 87.5625 94.8671875 C88.66070068 95.2694455 89.75890137 95.67170349 90.89038086 96.08615112 C108.73923379 102.73385068 108.73923379 102.73385068 112 107.625 C112.3359375 109.9296875 112.3359375 109.9296875 112.375 112.5 C112.40335938 113.34304687 112.43171875 114.18609375 112.4609375 115.0546875 C111.81843762 118.63744108 110.56271677 120.01915404 108 122.625 C105.16090083 124.15189069 102.19014838 125.19681144 99.15234375 126.26171875 C97.83713745 126.74388603 97.83713745 126.74388603 96.49536133 127.23579407 C93.64782254 128.27600814 90.79300155 129.29437248 87.9375 130.3125 C85.98392134 131.02131354 84.03087856 131.73160577 82.07836914 132.44335938 C78.19669569 133.85653973 74.31239471 135.26208723 70.42578125 136.66162109 C65.67809539 138.37447945 60.94434772 140.12174032 56.21875 141.89453125 C55.57942032 142.13403 54.94009064 142.37352875 54.28138733 142.62028503 C51.3854371 143.70568584 48.49026996 144.7931564 45.59545898 145.8815918 C44.10767944 146.43520386 44.10767944 146.43520386 42.58984375 147 C41.74284912 147.31710938 40.89585449 147.63421875 40.02319336 147.9609375 C38 148.625 38 148.625 36 148.625 C35.83047821 149.21649338 35.66095642 149.80798676 35.48629761 150.41740417 C33.56003194 157.00196014 31.32643808 163.43088224 28.9453125 169.86328125 C28.5618869 170.90590622 28.1784613 171.94853119 27.78341675 173.02275085 C26.9763084 175.21579465 26.16778468 177.40831802 25.35791016 179.6003418 C24.13268847 182.91668936 22.91165458 186.23455406 21.69140625 189.55273438 C20.14708471 193.75020711 18.59346475 197.94404605 17.03222656 202.13525391 C15.82130439 205.38814095 14.6333316 208.64569662 13.49121094 211.92333984 C13.0790332 213.07656738 12.66685547 214.22979492 12.2421875 215.41796875 C11.91847168 216.35535889 11.59475586 217.29274902 11.26123047 218.25854492 C9.17172643 222.17909517 6.29852373 224.20156835 2.125 225.5625 C-1.95872937 225.64417459 -4.43452386 224.57592091 -8 222.625 C-11.52988054 218.97595273 -12.81919239 214.14256107 -14.4765625 209.453125 C-14.80357147 208.54587677 -15.13058044 207.63862854 -15.46749878 206.70388794 C-16.52619865 203.76311069 -17.57560936 200.81911046 -18.625 197.875 C-19.70560825 194.86550969 -20.78857486 191.85687601 -21.87188721 188.84835815 C-22.58579725 186.86565131 -23.29897633 184.88268111 -24.01141357 182.89944458 C-27.11723408 174.26391521 -30.32409564 165.67053863 -33.61181641 157.10253906 C-33.93585449 156.25143555 -34.25989258 155.40033203 -34.59375 154.5234375 C-34.86896484 153.80849121 -35.14417969 153.09354492 -35.42773438 152.35693359 C-36 150.625 -36 150.625 -36 148.625 C-36.59149338 148.45547821 -37.18298676 148.28595642 -37.79240417 148.11129761 C-44.37696014 146.18503194 -50.80588224 143.95143808 -57.23828125 141.5703125 C-58.28090622 141.1868869 -59.32353119 140.8034613 -60.39775085 140.40841675 C-62.59079465 139.6013084 -64.78331802 138.79278468 -66.9753418 137.98291016 C-70.29168936 136.75768847 -73.60955406 135.53665458 -76.92773438 134.31640625 C-81.12520711 132.77208471 -85.31904605 131.21846475 -89.51025391 129.65722656 C-92.76314095 128.44630439 -96.02069662 127.2583316 -99.29833984 126.11621094 C-100.45156738 125.7040332 -101.60479492 125.29185547 -102.79296875 124.8671875 C-103.73035889 124.54347168 -104.66774902 124.21975586 -105.63354492 123.88623047 C-108.62631885 122.2911959 -110.10638461 120.41135068 -112 117.625 C-112.56640625 115.125 -112.56640625 115.125 -112.5625 112.625 C-112.58441406 111.8 -112.60632813 110.975 -112.62890625 110.125 C-111.71682882 106.49935061 -110.02550599 104.65294133 -107 102.625 C-102.99642102 100.71939554 -98.85958347 99.24305021 -94.6875 97.75 C-92.78014644 97.04825775 -90.87280831 96.3464727 -88.96592712 95.64344788 C-86.86250637 94.86982244 -84.75694775 94.10219811 -82.65136719 93.33447266 C-77.50614847 91.45142298 -72.38187099 89.51396755 -67.2578125 87.57421875 C-65.42621442 86.8819292 -63.59459012 86.189709 -61.76293945 85.49755859 C-59.03956806 84.46838939 -56.31630616 83.43894116 -53.59359741 82.40802002 C-51.03888496 81.44189742 -48.48256546 80.48015529 -45.92578125 79.51953125 C-45.1531192 79.22632492 -44.38045715 78.93311859 -43.5843811 78.63102722 C-38.2283985 76.625 -38.2283985 76.625 -36 76.625 C-35.8275325 76.02507736 -35.655065 75.42515472 -35.47737122 74.80705261 C-33.62289242 68.47757515 -31.49800122 62.29374319 -29.19921875 56.11328125 C-28.84036087 55.14198776 -28.48150299 54.17069427 -28.11177063 53.16996765 C-27.35601285 51.12652083 -26.59876379 49.08362497 -25.84008789 47.04125977 C-24.6975096 43.96445446 -23.56029422 40.88570806 -22.42382812 37.80664062 C-20.6259777 32.94346578 -18.810015 28.08739726 -16.980896 23.23590088 C-16.3545661 21.56876667 -15.73272482 19.89993457 -15.11676025 18.22894287 C-14.3469078 16.14112497 -13.56088408 14.06021231 -12.76953125 11.98046875 C-12.34905518 10.85664795 -11.9285791 9.73282715 -11.49536133 8.57495117 C-8.91623089 3.48701108 -5.93299015 -0.09270297 0 0 Z M-1 45.625 C-1.20409485 46.17988098 -1.4081897 46.73476196 -1.61846924 47.30645752 C-3.74688998 53.08638772 -5.89068578 58.86044392 -8.04345703 64.63134766 C-8.84460985 66.78515508 -9.64184486 68.94042407 -10.43505859 71.09716797 C-11.57660864 74.19892661 -12.73219487 77.29513747 -13.890625 80.390625 C-14.24183411 81.35429993 -14.59304321 82.31797485 -14.95489502 83.31085205 C-17.20982964 89.28309642 -18.87989106 93.13307483 -24.86230469 95.99365234 C-26.50054199 96.5962085 -26.50054199 96.5962085 -28.171875 97.2109375 C-29.99477051 97.89071655 -29.99477051 97.89071655 -31.85449219 98.58422852 C-33.15296736 99.05622781 -34.45147044 99.52815036 -35.75 100 C-37.06714842 100.48837973 -38.38388011 100.97788482 -39.70019531 101.46850586 C-45.26991459 103.53986659 -50.85384813 105.57200975 -56.4375 107.60546875 C-57.18547852 107.8802002 -57.93345703 108.15493164 -58.70410156 108.43798828 C-60.60694627 109.13509249 -62.51424661 109.82000118 -64.421875 110.50390625 C-67.13221939 111.35452696 -67.13221939 111.35452696 -68 113.625 C-61.5040728 116.02842129 -55.00787036 118.43109744 -48.51147461 120.83325195 C-46.30079888 121.65078793 -44.09018658 122.46849544 -41.87963867 123.28637695 C-38.7050815 124.460899 -35.53029789 125.6348071 -32.35546875 126.80859375 C-31.36475876 127.17528671 -30.37404877 127.54197968 -29.35331726 127.91978455 C-27.97222527 128.43020042 -27.97222527 128.43020042 -26.56323242 128.95092773 C-25.7527092 129.2507103 -24.94218597 129.55049286 -24.10710144 129.85935974 C-22.41416508 130.47450822 -20.70879989 131.05540004 -19 131.625 C-18.04345703 133.55541992 -18.04345703 133.55541992 -17 136.625 C-16.43705126 138.16141453 -15.87149359 139.69687416 -15.30419922 141.23168945 C-14.63687108 143.06692055 -13.97041617 144.90246934 -13.3046875 146.73828125 C-12.95238068 147.70783249 -12.60007385 148.67738373 -12.23709106 149.67631531 C-11.11563793 152.76310285 -9.99530422 155.85029531 -8.875 158.9375 C-8.11335512 161.03453204 -7.3516372 163.13153755 -6.58984375 165.22851562 C-4.72571603 170.36037 -2.86250642 175.492557 -1 180.625 C-0.34 180.625 0.32 180.625 1 180.625 C1.196008 180.08486771 1.39201599 179.54473541 1.59396362 178.98823547 C3.63702366 173.35874533 5.68122084 167.72966905 7.72607422 162.10083008 C8.48873504 160.00100086 9.25110737 157.90106684 10.01318359 155.80102539 C11.10958969 152.77983337 12.20703796 149.75902169 13.3046875 146.73828125 C13.6443454 145.80164139 13.9840033 144.86500153 14.33395386 143.89997864 C14.95646504 142.18799945 15.58575243 140.47846032 16.22357178 138.77212524 C16.83642283 137.07735432 17.36257166 135.3512421 17.85595703 133.61791992 C19 131.625 19 131.625 21.50048828 130.54345703 C22.65532715 130.24036621 23.81016602 129.93727539 25 129.625 C26.54839003 129.07521339 28.09075756 128.50831707 29.62841797 127.92919922 C30.91907669 127.44892776 30.91907669 127.44892776 32.23580933 126.95895386 C33.14541412 126.61929596 34.05501892 126.27963806 34.9921875 125.9296875 C35.93812775 125.57738068 36.88406799 125.22507385 37.8586731 124.86209106 C40.86447517 123.74235674 43.86974402 122.62119905 46.875 121.5 C48.91923575 120.73818709 50.9635062 119.97646731 53.0078125 119.21484375 C58.00561082 117.35264091 63.00297271 115.48927078 68 113.625 C65.83143502 111.20077028 64.0306429 110.03942326 60.97509766 108.95507812 C60.17061188 108.66467651 59.3661261 108.3742749 58.53726196 108.07507324 C57.67160614 107.77186157 56.80595032 107.4686499 55.9140625 107.15625 C55.02012787 106.83466919 54.12619324 106.51308838 53.20516968 106.1817627 C50.34791234 105.15481366 47.4868565 104.139055 44.625 103.125 C41.77070036 102.1098705 38.91738046 101.09224602 36.06625366 100.0682373 C34.29299002 99.43169237 32.51784649 98.80035369 30.7406311 98.17492676 C20.14862805 94.38117699 20.14862805 94.38117699 17.85668945 90.87695312 C17.61136475 90.22662109 17.36604004 89.57628906 17.11328125 88.90625 C16.819375 88.15118164 16.52546875 87.39611328 16.22265625 86.61816406 C15.77212891 85.38404785 15.77212891 85.38404785 15.3125 84.125 C14.98507812 83.26874023 14.65765625 82.41248047 14.3203125 81.53027344 C13.1946514 78.56861304 12.09673082 75.59749048 11 72.625 C10.08774149 70.18210418 9.1749595 67.7394038 8.26171875 65.296875 C5.82018261 58.74722807 3.40256148 52.18903525 1 45.625 C0.34 45.625 -0.32 45.625 -1 45.625 Z " fill="#000000" transform="translate(352,-0.625)"/>
<path d="M0 0 C4.03874826 3.50937243 5.9821283 6.59044991 7.82421875 11.5859375 C8.05655716 12.20594635 8.28889557 12.8259552 8.52827454 13.4647522 C9.2609294 15.43033171 9.97410982 17.4023589 10.6875 19.375 C11.17653589 20.69055031 11.66676077 22.00565927 12.15820312 23.3203125 C15.82195465 33.20093737 15.82195465 33.20093737 16.85253906 37.82617188 C17.64451981 41.11005622 17.64451981 41.11005622 20.12915039 42.16845703 C21.00563232 42.32169434 21.88211426 42.47493164 22.78515625 42.6328125 C29.60568739 44.09507028 35.92384788 46.40033239 42.4375 48.875 C44.17290039 49.50728516 44.17290039 49.50728516 45.94335938 50.15234375 C47.05388672 50.57386719 48.16441406 50.99539062 49.30859375 51.4296875 C50.80604126 51.99018799 50.80604126 51.99018799 52.33374023 52.56201172 C55.47123325 54.25414924 57.01268585 56.06611194 59 59 C59.56640625 61.24609375 59.56640625 61.24609375 59.5625 63.4375 C59.58441406 64.15808594 59.60632813 64.87867188 59.62890625 65.62109375 C58.69390664 69.15783139 56.65908656 71.58152321 54 74 C51.4452487 75.37107492 48.8035224 76.18179871 46.03125 77.0078125 C44.47474857 77.52450231 42.91877393 78.04278127 41.36328125 78.5625 C38.93290794 79.35120641 36.50023934 80.12492703 34.05615234 80.87011719 C24.43140902 83.55149868 24.43140902 83.55149868 16.94897461 89.66723633 C15.63947806 92.75641525 14.78660516 95.74056992 14 99 C13.27215732 101.08941325 12.52336518 103.17164548 11.75390625 105.24609375 C10.64643878 108.36391958 9.54719202 111.48253812 8.48242188 114.61523438 C6.29140929 120.70741273 4.61711591 124.57799386 -1 128 C-4.70725812 129.01899319 -8.12885837 128.2969801 -11.75 127.0625 C-18.10993978 121.2325552 -20.34715308 109.93984769 -23.25 102.0625 C-23.93835938 100.21688477 -23.93835938 100.21688477 -24.640625 98.33398438 C-25.07375 97.16287109 -25.506875 95.99175781 -25.953125 94.78515625 C-26.34661133 93.72176025 -26.74009766 92.65836426 -27.14550781 91.56274414 C-28 89 -28 89 -28 87 C-28.8511438 86.75999268 -28.8511438 86.75999268 -29.71948242 86.51513672 C-37.04893929 84.38843221 -44.17722021 81.82658973 -51.3125 79.125 C-52.46556641 78.70347656 -53.61863281 78.28195313 -54.80664062 77.84765625 C-65.46012007 73.80859796 -65.46012007 73.80859796 -69 69 C-69.96685978 65.39039015 -70.22094728 62.95007329 -69.375 59.3125 C-66.24330498 54.04555838 -61.15928891 52.00064635 -55.6171875 49.984375 C-54.92110382 49.72368225 -54.22502014 49.4629895 -53.50784302 49.19439697 C-52.04545156 48.64892047 -50.58137176 48.10795106 -49.11572266 47.57128906 C-46.8711013 46.74857101 -44.63261369 45.91063524 -42.39453125 45.0703125 C-40.9690845 44.54076537 -39.54331399 44.01208877 -38.1171875 43.484375 C-37.11399979 43.1094693 -37.11399979 43.1094693 -36.09054565 42.72698975 C-33.24241426 41.68984374 -31.05830918 41 -28 41 C-27.82452637 39.97410767 -27.82452637 39.97410767 -27.64550781 38.92749023 C-26.45066978 33.50869186 -24.39203336 28.34284809 -22.49951172 23.13500977 C-21.75501601 21.07637 -21.02786909 19.01210647 -20.30078125 16.94726562 C-19.8213767 15.62201038 -19.34094086 14.29712766 -18.859375 12.97265625 C-18.21693848 11.18226929 -18.21693848 11.18226929 -17.56152344 9.35571289 C-15.76679985 5.49885302 -13.93174737 3.06954749 -11 0 C-7.22426023 -1.25857992 -3.74622187 -1.30363032 0 0 Z M-6 44 C-6.29132813 44.81984375 -6.58265625 45.6396875 -6.8828125 46.484375 C-10.9935451 57.29120661 -10.9935451 57.29120661 -17 60 C-19.64991647 61.08775956 -22.28872976 62.06507923 -25 63 C-23.50369487 65.99261027 -21.29601426 66.04998781 -18.1875 67.125 C-11.39623692 69.85600615 -11.39623692 69.85600615 -9.375 73.9375 C-8.87218923 75.27578926 -8.41104551 76.63073801 -8 78 C-7.5875 79.155 -7.175 80.31 -6.75 81.5 C-6.5025 82.325 -6.255 83.15 -6 84 C-2.40014068 82.20007034 -1.82953262 77.51665141 -0.51171875 73.8828125 C1.95585655 69.17720378 6.10966525 67.84805534 10.8125 65.8125 C11.60269531 65.46832031 12.39289063 65.12414062 13.20703125 64.76953125 C13.79871094 64.51558594 14.39039063 64.26164062 15 64 C12.47732009 62.31821339 10.18908177 61.09893258 7.4375 59.875 C6.65246094 59.52179688 5.86742187 59.16859375 5.05859375 58.8046875 C3.05792202 57.87864462 3.05792202 57.87864462 1 58 C0.7525 57.360625 0.505 56.72125 0.25 56.0625 C-1.40811572 52.00011649 -3.2035584 48.00275094 -5 44 C-5.33 44 -5.66 44 -6 44 Z " fill="#000000" transform="translate(453,139)"/>
<path d="M0 0 C2.04797755 1.44951732 3.92445633 2.98889561 5.80859375 4.64453125 C6.41445312 5.14597656 7.0203125 5.64742187 7.64453125 6.1640625 C14.13226498 11.98602443 19.21603742 20.86977341 19.9855957 29.66821289 C20.4385966 45.46188155 18.53636141 56.31943053 7.80859375 68.64453125 C0.01760124 76.32190511 -11.38848024 80.69787196 -22.25390625 80.89453125 C-34.46959088 80.71416544 -44.46383405 76.83252001 -53.48046875 68.5390625 C-62.62409219 58.86462946 -66.73689805 47.69591442 -66.44140625 34.47265625 C-65.39828984 22.67240185 -60.05772884 11.56146539 -51.19140625 3.64453125 C-36.15748136 -6.7462631 -16.20036022 -10.02054367 0 0 Z M-37.984375 22.5859375 C-43.20406541 29.31822228 -44.1465172 35.17731169 -43.19140625 43.64453125 C-40.84777059 49.68352604 -36.71187676 53.41489993 -31.31640625 56.83203125 C-24.4171383 59.46998664 -18.80111771 58.48038105 -12.19140625 55.64453125 C-7.57814496 52.82638837 -4.17831356 49.0014061 -2.63671875 43.7578125 C-1.32414724 37.52885474 -1.71138433 32.085767 -4.85546875 26.5 C-8.12217335 21.96291028 -12.67462072 17.92750463 -18.19140625 16.64453125 C-25.96275613 15.78104793 -32.49719362 16.64447967 -37.984375 22.5859375 Z " fill="#000000" transform="translate(172.19140625,117.35546875)"/>
<path d="M0 0 C2.82424288 2.19022918 4.41508603 3.83017207 6 7 C6.07116382 9.37402501 6.08409085 11.75000677 6.0625 14.125 C6.05347656 15.40632813 6.04445313 16.68765625 6.03515625 18.0078125 C6.02355469 18.99523437 6.01195312 19.98265625 6 21 C6.94101562 20.95359375 7.88203125 20.9071875 8.8515625 20.859375 C20.29166667 20.52777778 20.29166667 20.52777778 23.8125 22.875 C26.90230988 25.87652959 27.19283951 27.61178705 27.3125 31.8125 C27.28566106 35.52700988 27.12204095 36.80066645 25.125 40.0625 C21.37370334 43.48279989 18.22194503 43.12062757 13.375 43.0625 C12.66859375 43.05798828 11.9621875 43.05347656 11.234375 43.04882812 C9.48954725 43.03703875 7.744763 43.01910324 6 43 C6.04640625 43.94101562 6.0928125 44.88203125 6.140625 45.8515625 C6.47265247 57.30651016 6.47265247 57.30651016 4.5 60.75 C1.20237962 63.71785835 -1.55632948 64.88393398 -6 65 C-9.90782397 63.9109343 -12.17597672 63.05673356 -14.6875 59.8359375 C-16.34073158 56.26377641 -16.29736646 53.60607049 -16.1875 49.6875 C-16.16042969 48.43324219 -16.13335937 47.17898437 -16.10546875 45.88671875 C-16.07066406 44.93410156 -16.03585937 43.98148438 -16 43 C-17.02480469 43.04640625 -18.04960937 43.0928125 -19.10546875 43.140625 C-20.46611656 43.17816011 -21.82679605 43.21455841 -23.1875 43.25 C-23.86103516 43.28351562 -24.53457031 43.31703125 -25.22851562 43.3515625 C-28.89041975 43.42301429 -30.82150622 43.11534178 -33.92578125 41.109375 C-37.51214011 37.46223039 -37.38795255 34.42829175 -37.359375 29.484375 C-37 27 -37 27 -34.625 23.9375 C-30.417997 20.83233112 -28.10645118 20.88994135 -22.875 20.9375 C-21.59367187 20.94652344 -20.31234375 20.95554687 -18.9921875 20.96484375 C-18.00476563 20.97644531 -17.01734375 20.98804687 -16 21 C-16.04640625 20.05898438 -16.0928125 19.11796875 -16.140625 18.1484375 C-16.47222222 6.70833333 -16.47222222 6.70833333 -14.125 3.1875 C-10.10574179 -0.94997169 -5.51928597 -0.79838728 0 0 Z " fill="#000000" transform="translate(453,16)"/>
</svg>
